%
M48
M72
T01C0.01575
T02C0.03200
T03C0.03937
T04C0.08268
T05C0.27559
%
T01
X40620Y62087
X74872Y52638
X89833Y53031
X95738Y62087
X87864Y67992
X87470Y89646
X87864Y109331
X105187Y115236
X142589Y89646
X143376Y73504
X145344Y60118
X144951Y53031
X142982Y48307
X152825Y54213
X129990Y52638
X142982Y109331
X158337Y114843
X157549Y125079
X204400Y119567
X209124Y117205
X216211Y108937
X233927Y97520
X234715Y114055
X196132Y75866
X193770Y60118
X201644Y56181
X215423Y48307
X50069Y115236
T02
X43573Y48307
X53415Y48307
X98691Y48307
X108533Y48307
X151644Y87283
X170541Y90827
X196132Y90827
X205974Y85709
X205974Y75866
X205974Y66024
X223691Y71929
X233533Y71929
X233533Y81772
X223691Y81772
X223691Y91614
X233533Y91614
X223691Y101457
X223691Y109331
T03
X186289Y74055
X186289Y64055
X186289Y54055
T04
X227628Y54213
X227628Y125079
X30778Y125079
X30778Y54213
T05
X167392Y64055
M30
