%
M48
M72
T01C0.01575
T02C0.04724
T03C0.07874
T04C0.08268
%
T01
X44557Y34528
X48494Y34528
X48494Y44370
X52431Y44370
X60305Y32559
X64242Y44370
X68179Y44370
X38002Y45551
X35246Y48307
X30246Y48307
X46526Y77835
X38652Y83740
X56368Y101457
X56368Y105394
T02
X26841Y28622
X40620Y28622
X54400Y28622
X64242Y103425
X78022Y103425
T03
X32746Y64055
T04
X30778Y99488
X74085Y32559
M30
