G75*
%MOIN*%
%OFA0B0*%
%FSLAX26Y26*%
%IPPOS*%
%LPD*%
%AMOC8*
5,1,8,0,0,1.08239X$1,22.5*
%
%ADD10C,0.014173*%
%ADD11C,0.008268*%
D10*
X00026771Y00570078D02*
X00026771Y00603150D01*
X00067717Y00603150D01*
X00067717Y00570078D01*
X00026771Y00570078D01*
X00026771Y00583542D02*
X00067717Y00583542D01*
X00067717Y00597006D02*
X00026771Y00597006D01*
X00026771Y00656692D02*
X00026771Y00689764D01*
X00067717Y00689764D01*
X00067717Y00656692D01*
X00026771Y00656692D01*
X00026771Y00670156D02*
X00067717Y00670156D01*
X00067717Y00683620D02*
X00026771Y00683620D01*
X00133070Y00658268D02*
X00133070Y00601574D01*
X00133070Y00658268D02*
X00166142Y00658268D01*
X00166142Y00601574D01*
X00133070Y00601574D01*
X00133070Y00615038D02*
X00166142Y00615038D01*
X00166142Y00628502D02*
X00133070Y00628502D01*
X00133070Y00641966D02*
X00166142Y00641966D01*
X00166142Y00655430D02*
X00133070Y00655430D01*
D11*
X00102165Y00498229D02*
X00082875Y00498229D01*
X00082875Y00525393D01*
X00102165Y00525393D01*
X00102165Y00498229D01*
X00102165Y00506084D02*
X00082875Y00506084D01*
X00082875Y00513939D02*
X00102165Y00513939D01*
X00102165Y00521794D02*
X00082875Y00521794D01*
X00134056Y00498229D02*
X00153346Y00498229D01*
X00134056Y00498229D02*
X00134056Y00525393D01*
X00153346Y00525393D01*
X00153346Y00498229D01*
X00153346Y00506084D02*
X00134056Y00506084D01*
X00134056Y00513939D02*
X00153346Y00513939D01*
X00153346Y00521794D02*
X00134056Y00521794D01*
M02*
