G75*
%MOIN*%
%OFA0B0*%
%FSLAX25Y25*%
%IPPOS*%
%LPD*%
%AMOC8*
5,1,8,0,0,1.08239X$1,22.5*
%
%ADD10C,0.00000*%
%ADD11C,0.00600*%
%ADD12C,0.00400*%
%ADD13C,0.00500*%
D10*
X0020935Y0044370D02*
X0020935Y0052244D01*
X0024872Y0056181D01*
X0024872Y0067992D01*
X0020935Y0071929D01*
X0020935Y0115236D01*
X0024872Y0119173D01*
X0024872Y0130984D01*
X0020935Y0134921D01*
X0020935Y0142795D01*
X0040620Y0142795D01*
X0040620Y0134921D01*
X0036683Y0130984D01*
X0036683Y0119173D01*
X0040620Y0115236D01*
X0040620Y0071929D01*
X0036683Y0067992D01*
X0036683Y0056181D01*
X0040620Y0052244D01*
X0040620Y0044370D01*
X0020935Y0044370D01*
D11*
X0023841Y0076803D02*
X0023841Y0077803D01*
X0023841Y0076803D02*
X0024841Y0076803D01*
X0028841Y0076803D02*
X0029841Y0076803D01*
X0029841Y0077803D01*
X0031715Y0077803D02*
X0031715Y0076803D01*
X0032715Y0076803D01*
X0036715Y0076803D02*
X0037715Y0076803D01*
X0037715Y0077803D01*
X0037715Y0081803D02*
X0037715Y0082803D01*
X0036715Y0082803D01*
X0033778Y0084677D02*
X0032778Y0084677D01*
X0033778Y0084677D02*
X0033778Y0085677D01*
X0032715Y0082803D02*
X0031715Y0082803D01*
X0031715Y0081803D01*
X0029841Y0081803D02*
X0029841Y0082803D01*
X0028841Y0082803D01*
X0028778Y0084677D02*
X0027778Y0084677D01*
X0027778Y0085677D01*
X0024841Y0082803D02*
X0023841Y0082803D01*
X0023841Y0081803D01*
X0027778Y0089677D02*
X0027778Y0090677D01*
X0028778Y0090677D01*
X0032778Y0090677D02*
X0033778Y0090677D01*
X0033778Y0089677D01*
X0034362Y0101762D02*
X0029390Y0101762D01*
X0034362Y0101762D02*
X0034362Y0102486D01*
X0027193Y0106290D02*
X0027193Y0108391D01*
X0029390Y0112962D02*
X0034362Y0112962D01*
X0034362Y0112239D01*
D12*
X0039639Y0111103D02*
X0039639Y0113658D01*
X0044239Y0112380D01*
X0044239Y0109384D02*
X0044239Y0108362D01*
X0044237Y0108300D01*
X0044232Y0108239D01*
X0044222Y0108178D01*
X0044209Y0108117D01*
X0044193Y0108058D01*
X0044173Y0108000D01*
X0044149Y0107943D01*
X0044122Y0107887D01*
X0044092Y0107833D01*
X0044058Y0107781D01*
X0044022Y0107732D01*
X0043982Y0107684D01*
X0043940Y0107639D01*
X0043895Y0107597D01*
X0043847Y0107557D01*
X0043798Y0107521D01*
X0043746Y0107487D01*
X0043692Y0107457D01*
X0043636Y0107430D01*
X0043579Y0107406D01*
X0043521Y0107386D01*
X0043462Y0107370D01*
X0043401Y0107357D01*
X0043340Y0107347D01*
X0043279Y0107342D01*
X0043217Y0107340D01*
X0040661Y0107340D01*
X0040599Y0107342D01*
X0040538Y0107347D01*
X0040477Y0107357D01*
X0040416Y0107370D01*
X0040357Y0107386D01*
X0040299Y0107406D01*
X0040242Y0107430D01*
X0040186Y0107457D01*
X0040132Y0107487D01*
X0040080Y0107521D01*
X0040031Y0107557D01*
X0039983Y0107597D01*
X0039938Y0107639D01*
X0039896Y0107684D01*
X0039857Y0107732D01*
X0039820Y0107781D01*
X0039786Y0107833D01*
X0039756Y0107887D01*
X0039729Y0107943D01*
X0039705Y0108000D01*
X0039685Y0108058D01*
X0039669Y0108117D01*
X0039656Y0108178D01*
X0039646Y0108239D01*
X0039641Y0108300D01*
X0039639Y0108362D01*
X0039639Y0109384D01*
X0039639Y0111103D02*
X0040150Y0111103D01*
X0039639Y0105542D02*
X0039639Y0104519D01*
X0039639Y0105030D02*
X0044239Y0105030D01*
X0044239Y0104519D02*
X0044239Y0105542D01*
X0035487Y0102851D02*
X0035487Y0098251D01*
X0034209Y0098251D02*
X0036765Y0098251D01*
X0032491Y0098251D02*
X0031468Y0098251D01*
X0031406Y0098253D01*
X0031345Y0098258D01*
X0031284Y0098268D01*
X0031223Y0098281D01*
X0031164Y0098297D01*
X0031106Y0098317D01*
X0031049Y0098341D01*
X0030993Y0098368D01*
X0030939Y0098398D01*
X0030887Y0098432D01*
X0030838Y0098468D01*
X0030790Y0098508D01*
X0030745Y0098550D01*
X0030703Y0098595D01*
X0030663Y0098643D01*
X0030627Y0098692D01*
X0030593Y0098744D01*
X0030563Y0098798D01*
X0030536Y0098854D01*
X0030512Y0098911D01*
X0030492Y0098969D01*
X0030476Y0099028D01*
X0030463Y0099089D01*
X0030453Y0099150D01*
X0030448Y0099211D01*
X0030446Y0099273D01*
X0030446Y0101829D01*
X0030448Y0101891D01*
X0030453Y0101952D01*
X0030463Y0102013D01*
X0030476Y0102074D01*
X0030492Y0102133D01*
X0030512Y0102191D01*
X0030536Y0102248D01*
X0030563Y0102304D01*
X0030593Y0102358D01*
X0030627Y0102410D01*
X0030663Y0102459D01*
X0030703Y0102507D01*
X0030745Y0102552D01*
X0030790Y0102594D01*
X0030838Y0102633D01*
X0030887Y0102670D01*
X0030939Y0102704D01*
X0030993Y0102734D01*
X0031049Y0102761D01*
X0031106Y0102785D01*
X0031164Y0102805D01*
X0031223Y0102821D01*
X0031284Y0102834D01*
X0031345Y0102844D01*
X0031406Y0102849D01*
X0031468Y0102851D01*
X0032491Y0102851D01*
X0034209Y0101829D02*
X0035487Y0102851D01*
D13*
X0036016Y0097364D02*
X0037266Y0097364D01*
X0037334Y0097362D01*
X0037401Y0097357D01*
X0037468Y0097348D01*
X0037535Y0097335D01*
X0037600Y0097318D01*
X0037665Y0097299D01*
X0037729Y0097275D01*
X0037791Y0097248D01*
X0037852Y0097218D01*
X0037910Y0097185D01*
X0037967Y0097149D01*
X0038022Y0097109D01*
X0038075Y0097067D01*
X0038126Y0097021D01*
X0038173Y0096974D01*
X0038219Y0096923D01*
X0038261Y0096870D01*
X0038301Y0096815D01*
X0038337Y0096758D01*
X0038370Y0096700D01*
X0038400Y0096639D01*
X0038427Y0096577D01*
X0038451Y0096513D01*
X0038470Y0096448D01*
X0038487Y0096383D01*
X0038500Y0096316D01*
X0038509Y0096249D01*
X0038514Y0096182D01*
X0038516Y0096114D01*
X0038516Y0094114D01*
X0038514Y0094046D01*
X0038509Y0093979D01*
X0038500Y0093912D01*
X0038487Y0093845D01*
X0038470Y0093780D01*
X0038451Y0093715D01*
X0038427Y0093651D01*
X0038400Y0093589D01*
X0038370Y0093528D01*
X0038337Y0093470D01*
X0038301Y0093413D01*
X0038261Y0093358D01*
X0038219Y0093305D01*
X0038173Y0093254D01*
X0038126Y0093207D01*
X0038075Y0093161D01*
X0038022Y0093119D01*
X0037967Y0093079D01*
X0037910Y0093043D01*
X0037852Y0093010D01*
X0037791Y0092980D01*
X0037729Y0092953D01*
X0037665Y0092929D01*
X0037600Y0092910D01*
X0037535Y0092893D01*
X0037468Y0092880D01*
X0037401Y0092871D01*
X0037334Y0092866D01*
X0037266Y0092864D01*
X0036016Y0092864D01*
X0036016Y0097364D01*
X0032616Y0097364D02*
X0034116Y0092864D01*
X0033741Y0093989D02*
X0031491Y0093989D01*
X0031116Y0092864D02*
X0032616Y0097364D01*
X0028341Y0097364D02*
X0027091Y0097364D01*
X0027091Y0092864D01*
X0027091Y0094864D02*
X0028341Y0094864D01*
X0028410Y0094866D01*
X0028479Y0094872D01*
X0028547Y0094881D01*
X0028614Y0094894D01*
X0028681Y0094911D01*
X0028747Y0094932D01*
X0028811Y0094956D01*
X0028874Y0094984D01*
X0028936Y0095015D01*
X0028996Y0095049D01*
X0029053Y0095087D01*
X0029109Y0095128D01*
X0029162Y0095171D01*
X0029213Y0095218D01*
X0029261Y0095267D01*
X0029306Y0095319D01*
X0029348Y0095374D01*
X0029387Y0095430D01*
X0029424Y0095489D01*
X0029456Y0095550D01*
X0029486Y0095612D01*
X0029512Y0095676D01*
X0029534Y0095741D01*
X0029553Y0095807D01*
X0029568Y0095874D01*
X0029579Y0095942D01*
X0029587Y0096011D01*
X0029591Y0096080D01*
X0029591Y0096148D01*
X0029587Y0096217D01*
X0029579Y0096286D01*
X0029568Y0096354D01*
X0029553Y0096421D01*
X0029534Y0096487D01*
X0029512Y0096552D01*
X0029486Y0096616D01*
X0029456Y0096678D01*
X0029424Y0096739D01*
X0029387Y0096798D01*
X0029348Y0096854D01*
X0029306Y0096909D01*
X0029261Y0096961D01*
X0029213Y0097010D01*
X0029162Y0097057D01*
X0029109Y0097100D01*
X0029053Y0097141D01*
X0028996Y0097179D01*
X0028936Y0097213D01*
X0028874Y0097244D01*
X0028811Y0097272D01*
X0028747Y0097296D01*
X0028681Y0097317D01*
X0028614Y0097334D01*
X0028547Y0097347D01*
X0028479Y0097356D01*
X0028410Y0097362D01*
X0028341Y0097364D01*
X0028679Y0089490D02*
X0030179Y0084990D01*
X0031028Y0084990D02*
X0031028Y0089490D01*
X0032278Y0089490D01*
X0032079Y0089490D02*
X0033329Y0089490D01*
X0033397Y0089488D01*
X0033464Y0089483D01*
X0033531Y0089474D01*
X0033598Y0089461D01*
X0033663Y0089444D01*
X0033728Y0089425D01*
X0033792Y0089401D01*
X0033854Y0089374D01*
X0033915Y0089344D01*
X0033973Y0089311D01*
X0034030Y0089275D01*
X0034085Y0089235D01*
X0034138Y0089193D01*
X0034189Y0089147D01*
X0034236Y0089100D01*
X0034282Y0089049D01*
X0034324Y0088996D01*
X0034364Y0088941D01*
X0034400Y0088884D01*
X0034433Y0088826D01*
X0034463Y0088765D01*
X0034490Y0088703D01*
X0034514Y0088639D01*
X0034533Y0088574D01*
X0034550Y0088509D01*
X0034563Y0088442D01*
X0034572Y0088375D01*
X0034577Y0088308D01*
X0034579Y0088240D01*
X0034579Y0086240D01*
X0035428Y0086115D02*
X0037678Y0086115D01*
X0037979Y0084990D02*
X0037979Y0089490D01*
X0036729Y0088490D01*
X0036553Y0089490D02*
X0035053Y0084990D01*
X0036729Y0084990D02*
X0039229Y0084990D01*
X0039953Y0084990D02*
X0041203Y0084990D01*
X0041271Y0084992D01*
X0041338Y0084997D01*
X0041405Y0085006D01*
X0041472Y0085019D01*
X0041537Y0085036D01*
X0041602Y0085055D01*
X0041666Y0085079D01*
X0041728Y0085106D01*
X0041789Y0085136D01*
X0041847Y0085169D01*
X0041904Y0085205D01*
X0041959Y0085245D01*
X0042012Y0085287D01*
X0042063Y0085333D01*
X0042110Y0085380D01*
X0042156Y0085431D01*
X0042198Y0085484D01*
X0042238Y0085539D01*
X0042274Y0085596D01*
X0042307Y0085654D01*
X0042337Y0085715D01*
X0042364Y0085777D01*
X0042388Y0085841D01*
X0042407Y0085906D01*
X0042424Y0085971D01*
X0042437Y0086038D01*
X0042446Y0086105D01*
X0042451Y0086172D01*
X0042453Y0086240D01*
X0042453Y0088240D01*
X0041229Y0088240D02*
X0041231Y0088309D01*
X0041237Y0088378D01*
X0041246Y0088446D01*
X0041259Y0088513D01*
X0041276Y0088580D01*
X0041297Y0088646D01*
X0041321Y0088710D01*
X0041349Y0088773D01*
X0041380Y0088835D01*
X0041414Y0088895D01*
X0041452Y0088952D01*
X0041493Y0089008D01*
X0041536Y0089061D01*
X0041583Y0089112D01*
X0041632Y0089160D01*
X0041684Y0089205D01*
X0041739Y0089247D01*
X0041795Y0089286D01*
X0041854Y0089323D01*
X0041915Y0089355D01*
X0041977Y0089385D01*
X0042041Y0089411D01*
X0042106Y0089433D01*
X0042172Y0089452D01*
X0042239Y0089467D01*
X0042307Y0089478D01*
X0042376Y0089486D01*
X0042445Y0089490D01*
X0042513Y0089490D01*
X0042582Y0089486D01*
X0042651Y0089478D01*
X0042719Y0089467D01*
X0042786Y0089452D01*
X0042852Y0089433D01*
X0042917Y0089411D01*
X0042981Y0089385D01*
X0043043Y0089355D01*
X0043104Y0089323D01*
X0043163Y0089286D01*
X0043219Y0089247D01*
X0043274Y0089205D01*
X0043326Y0089160D01*
X0043375Y0089112D01*
X0043422Y0089061D01*
X0043465Y0089008D01*
X0043506Y0088952D01*
X0043544Y0088895D01*
X0043578Y0088835D01*
X0043609Y0088773D01*
X0043637Y0088710D01*
X0043661Y0088646D01*
X0043682Y0088580D01*
X0043699Y0088513D01*
X0043712Y0088446D01*
X0043721Y0088378D01*
X0043727Y0088309D01*
X0043729Y0088240D01*
X0043729Y0086990D01*
X0042229Y0086990D01*
X0043729Y0086990D02*
X0043727Y0086903D01*
X0043721Y0086816D01*
X0043712Y0086729D01*
X0043699Y0086643D01*
X0043682Y0086557D01*
X0043661Y0086472D01*
X0043636Y0086389D01*
X0043608Y0086306D01*
X0043577Y0086225D01*
X0043542Y0086145D01*
X0043503Y0086067D01*
X0043461Y0085990D01*
X0043416Y0085915D01*
X0043367Y0085843D01*
X0043316Y0085772D01*
X0043261Y0085704D01*
X0043204Y0085639D01*
X0043143Y0085576D01*
X0043080Y0085515D01*
X0043015Y0085458D01*
X0042947Y0085403D01*
X0042876Y0085352D01*
X0042804Y0085303D01*
X0042729Y0085258D01*
X0042652Y0085216D01*
X0042574Y0085177D01*
X0042494Y0085142D01*
X0042413Y0085111D01*
X0042330Y0085083D01*
X0042247Y0085058D01*
X0042162Y0085037D01*
X0042076Y0085020D01*
X0041990Y0085007D01*
X0041903Y0084998D01*
X0041816Y0084992D01*
X0041729Y0084990D01*
X0039953Y0084990D02*
X0039953Y0089490D01*
X0041203Y0089490D01*
X0041271Y0089488D01*
X0041338Y0089483D01*
X0041405Y0089474D01*
X0041472Y0089461D01*
X0041537Y0089444D01*
X0041602Y0089425D01*
X0041666Y0089401D01*
X0041728Y0089374D01*
X0041789Y0089344D01*
X0041847Y0089311D01*
X0041904Y0089275D01*
X0041959Y0089235D01*
X0042012Y0089193D01*
X0042063Y0089147D01*
X0042110Y0089100D01*
X0042156Y0089049D01*
X0042198Y0088996D01*
X0042238Y0088941D01*
X0042274Y0088884D01*
X0042307Y0088826D01*
X0042337Y0088765D01*
X0042364Y0088703D01*
X0042388Y0088639D01*
X0042407Y0088574D01*
X0042424Y0088509D01*
X0042437Y0088442D01*
X0042446Y0088375D01*
X0042451Y0088308D01*
X0042453Y0088240D01*
X0041229Y0087990D02*
X0041231Y0087930D01*
X0041236Y0087869D01*
X0041245Y0087810D01*
X0041258Y0087751D01*
X0041274Y0087692D01*
X0041294Y0087635D01*
X0041317Y0087580D01*
X0041344Y0087525D01*
X0041373Y0087473D01*
X0041406Y0087422D01*
X0041442Y0087373D01*
X0041480Y0087327D01*
X0041522Y0087283D01*
X0041566Y0087241D01*
X0041612Y0087203D01*
X0041661Y0087167D01*
X0041712Y0087134D01*
X0041764Y0087105D01*
X0041819Y0087078D01*
X0041874Y0087055D01*
X0041931Y0087035D01*
X0041990Y0087019D01*
X0042049Y0087006D01*
X0042108Y0086997D01*
X0042169Y0086992D01*
X0042229Y0086990D01*
X0041229Y0087990D02*
X0041229Y0088240D01*
X0038053Y0084990D02*
X0036553Y0089490D01*
X0032278Y0089490D02*
X0032347Y0089488D01*
X0032416Y0089482D01*
X0032484Y0089473D01*
X0032551Y0089460D01*
X0032618Y0089443D01*
X0032684Y0089422D01*
X0032748Y0089398D01*
X0032811Y0089370D01*
X0032873Y0089339D01*
X0032933Y0089305D01*
X0032990Y0089267D01*
X0033046Y0089226D01*
X0033099Y0089183D01*
X0033150Y0089136D01*
X0033198Y0089087D01*
X0033243Y0089035D01*
X0033285Y0088980D01*
X0033324Y0088924D01*
X0033361Y0088865D01*
X0033393Y0088804D01*
X0033423Y0088742D01*
X0033449Y0088678D01*
X0033471Y0088613D01*
X0033490Y0088547D01*
X0033505Y0088480D01*
X0033516Y0088412D01*
X0033524Y0088343D01*
X0033528Y0088274D01*
X0033528Y0088206D01*
X0033524Y0088137D01*
X0033516Y0088068D01*
X0033505Y0088000D01*
X0033490Y0087933D01*
X0033471Y0087867D01*
X0033449Y0087802D01*
X0033423Y0087738D01*
X0033393Y0087676D01*
X0033361Y0087615D01*
X0033324Y0087556D01*
X0033285Y0087500D01*
X0033243Y0087445D01*
X0033198Y0087393D01*
X0033150Y0087344D01*
X0033099Y0087297D01*
X0033046Y0087254D01*
X0032990Y0087213D01*
X0032933Y0087175D01*
X0032873Y0087141D01*
X0032811Y0087110D01*
X0032748Y0087082D01*
X0032684Y0087058D01*
X0032618Y0087037D01*
X0032551Y0087020D01*
X0032484Y0087007D01*
X0032416Y0086998D01*
X0032347Y0086992D01*
X0032278Y0086990D01*
X0031028Y0086990D01*
X0029804Y0086115D02*
X0027554Y0086115D01*
X0027179Y0084990D02*
X0028679Y0089490D01*
X0032079Y0089490D02*
X0032079Y0084990D01*
X0033329Y0084990D01*
X0033397Y0084992D01*
X0033464Y0084997D01*
X0033531Y0085006D01*
X0033598Y0085019D01*
X0033663Y0085036D01*
X0033728Y0085055D01*
X0033792Y0085079D01*
X0033854Y0085106D01*
X0033915Y0085136D01*
X0033973Y0085169D01*
X0034030Y0085205D01*
X0034085Y0085245D01*
X0034138Y0085287D01*
X0034189Y0085333D01*
X0034236Y0085380D01*
X0034282Y0085431D01*
X0034324Y0085484D01*
X0034364Y0085539D01*
X0034400Y0085596D01*
X0034433Y0085654D01*
X0034463Y0085715D01*
X0034490Y0085777D01*
X0034514Y0085841D01*
X0034533Y0085906D01*
X0034550Y0085971D01*
X0034563Y0086038D01*
X0034572Y0086105D01*
X0034577Y0086172D01*
X0034579Y0086240D01*
X0040666Y0092864D02*
X0043166Y0092864D01*
X0047290Y0093489D02*
X0047341Y0093598D01*
X0047388Y0093708D01*
X0047432Y0093820D01*
X0047472Y0093934D01*
X0047508Y0094048D01*
X0047541Y0094164D01*
X0047570Y0094280D01*
X0047595Y0094398D01*
X0047616Y0094516D01*
X0047634Y0094635D01*
X0047647Y0094754D01*
X0047657Y0094874D01*
X0047663Y0094994D01*
X0047665Y0095114D01*
X0045166Y0095114D02*
X0045168Y0094994D01*
X0045174Y0094874D01*
X0045184Y0094754D01*
X0045197Y0094635D01*
X0045215Y0094516D01*
X0045236Y0094398D01*
X0045261Y0094280D01*
X0045290Y0094164D01*
X0045323Y0094048D01*
X0045359Y0093934D01*
X0045399Y0093820D01*
X0045443Y0093708D01*
X0045490Y0093598D01*
X0045541Y0093489D01*
X0045416Y0093864D02*
X0047416Y0096364D01*
X0047291Y0096739D02*
X0047270Y0096795D01*
X0047244Y0096850D01*
X0047216Y0096904D01*
X0047184Y0096955D01*
X0047149Y0097004D01*
X0047110Y0097050D01*
X0047069Y0097094D01*
X0047025Y0097136D01*
X0046978Y0097174D01*
X0046929Y0097209D01*
X0046877Y0097241D01*
X0046824Y0097269D01*
X0046769Y0097294D01*
X0046713Y0097315D01*
X0046655Y0097333D01*
X0046596Y0097346D01*
X0046536Y0097356D01*
X0046476Y0097362D01*
X0046416Y0097364D01*
X0046356Y0097362D01*
X0046296Y0097356D01*
X0046236Y0097346D01*
X0046177Y0097333D01*
X0046119Y0097315D01*
X0046063Y0097294D01*
X0046008Y0097269D01*
X0045955Y0097241D01*
X0045903Y0097209D01*
X0045854Y0097174D01*
X0045807Y0097136D01*
X0045763Y0097094D01*
X0045722Y0097050D01*
X0045683Y0097004D01*
X0045648Y0096955D01*
X0045616Y0096904D01*
X0045588Y0096850D01*
X0045562Y0096795D01*
X0045541Y0096739D01*
X0047290Y0096739D02*
X0047341Y0096630D01*
X0047388Y0096520D01*
X0047432Y0096408D01*
X0047472Y0096294D01*
X0047508Y0096180D01*
X0047541Y0096064D01*
X0047570Y0095948D01*
X0047595Y0095830D01*
X0047616Y0095712D01*
X0047634Y0095593D01*
X0047647Y0095474D01*
X0047657Y0095354D01*
X0047663Y0095234D01*
X0047665Y0095114D01*
X0045166Y0095114D02*
X0045168Y0095234D01*
X0045174Y0095354D01*
X0045184Y0095474D01*
X0045197Y0095593D01*
X0045215Y0095712D01*
X0045236Y0095830D01*
X0045261Y0095948D01*
X0045290Y0096064D01*
X0045323Y0096180D01*
X0045359Y0096294D01*
X0045399Y0096408D01*
X0045443Y0096520D01*
X0045490Y0096630D01*
X0045541Y0096739D01*
X0042791Y0095364D02*
X0040666Y0092864D01*
X0040666Y0096364D02*
X0040690Y0096433D01*
X0040718Y0096500D01*
X0040749Y0096566D01*
X0040783Y0096630D01*
X0040820Y0096692D01*
X0040861Y0096753D01*
X0040904Y0096811D01*
X0040950Y0096867D01*
X0041000Y0096921D01*
X0041051Y0096972D01*
X0041105Y0097020D01*
X0041162Y0097066D01*
X0041221Y0097109D01*
X0041282Y0097148D01*
X0041344Y0097185D01*
X0041409Y0097218D01*
X0041475Y0097249D01*
X0041543Y0097275D01*
X0041611Y0097299D01*
X0041681Y0097319D01*
X0041752Y0097335D01*
X0041824Y0097348D01*
X0041896Y0097357D01*
X0041968Y0097362D01*
X0042041Y0097364D01*
X0042106Y0097362D01*
X0042172Y0097356D01*
X0042236Y0097347D01*
X0042300Y0097334D01*
X0042364Y0097317D01*
X0042426Y0097296D01*
X0042487Y0097272D01*
X0042546Y0097244D01*
X0042604Y0097213D01*
X0042659Y0097179D01*
X0042713Y0097141D01*
X0042764Y0097101D01*
X0042813Y0097057D01*
X0042859Y0097011D01*
X0042903Y0096962D01*
X0042943Y0096911D01*
X0042981Y0096857D01*
X0043015Y0096802D01*
X0043046Y0096744D01*
X0043074Y0096685D01*
X0043098Y0096624D01*
X0043119Y0096562D01*
X0043136Y0096498D01*
X0043149Y0096434D01*
X0043158Y0096370D01*
X0043164Y0096304D01*
X0043166Y0096239D01*
X0043165Y0096239D02*
X0043163Y0096174D01*
X0043158Y0096109D01*
X0043149Y0096044D01*
X0043137Y0095980D01*
X0043121Y0095917D01*
X0043102Y0095855D01*
X0043080Y0095793D01*
X0043054Y0095733D01*
X0043025Y0095675D01*
X0042993Y0095618D01*
X0042958Y0095563D01*
X0042920Y0095510D01*
X0042880Y0095459D01*
X0042836Y0095410D01*
X0042790Y0095364D01*
X0046416Y0092864D02*
X0046476Y0092866D01*
X0046536Y0092872D01*
X0046596Y0092882D01*
X0046655Y0092895D01*
X0046713Y0092913D01*
X0046769Y0092934D01*
X0046824Y0092959D01*
X0046877Y0092987D01*
X0046929Y0093019D01*
X0046978Y0093054D01*
X0047025Y0093092D01*
X0047069Y0093134D01*
X0047110Y0093178D01*
X0047149Y0093224D01*
X0047184Y0093273D01*
X0047216Y0093324D01*
X0047244Y0093378D01*
X0047270Y0093433D01*
X0047291Y0093489D01*
X0046416Y0092864D02*
X0046356Y0092866D01*
X0046296Y0092872D01*
X0046236Y0092882D01*
X0046177Y0092895D01*
X0046119Y0092913D01*
X0046063Y0092934D01*
X0046008Y0092959D01*
X0045955Y0092987D01*
X0045903Y0093019D01*
X0045854Y0093054D01*
X0045807Y0093092D01*
X0045763Y0093134D01*
X0045722Y0093178D01*
X0045683Y0093224D01*
X0045648Y0093273D01*
X0045616Y0093324D01*
X0045588Y0093378D01*
X0045562Y0093433D01*
X0045541Y0093489D01*
X0049103Y0088490D02*
X0050353Y0089490D01*
X0050353Y0084990D01*
X0049103Y0084990D02*
X0051603Y0084990D01*
X0047103Y0084990D02*
X0044603Y0084990D01*
X0046728Y0087490D01*
X0045978Y0089490D02*
X0045905Y0089488D01*
X0045833Y0089483D01*
X0045761Y0089474D01*
X0045689Y0089461D01*
X0045618Y0089445D01*
X0045548Y0089425D01*
X0045480Y0089401D01*
X0045412Y0089375D01*
X0045346Y0089344D01*
X0045281Y0089311D01*
X0045219Y0089274D01*
X0045158Y0089235D01*
X0045099Y0089192D01*
X0045042Y0089146D01*
X0044988Y0089098D01*
X0044937Y0089047D01*
X0044887Y0088993D01*
X0044841Y0088937D01*
X0044798Y0088879D01*
X0044757Y0088818D01*
X0044720Y0088756D01*
X0044686Y0088692D01*
X0044655Y0088626D01*
X0044627Y0088559D01*
X0044603Y0088490D01*
X0046727Y0087490D02*
X0046773Y0087536D01*
X0046817Y0087585D01*
X0046857Y0087636D01*
X0046895Y0087689D01*
X0046930Y0087744D01*
X0046962Y0087801D01*
X0046991Y0087859D01*
X0047017Y0087919D01*
X0047039Y0087981D01*
X0047058Y0088043D01*
X0047074Y0088106D01*
X0047086Y0088170D01*
X0047095Y0088235D01*
X0047100Y0088300D01*
X0047102Y0088365D01*
X0047103Y0088365D02*
X0047101Y0088430D01*
X0047095Y0088496D01*
X0047086Y0088560D01*
X0047073Y0088624D01*
X0047056Y0088688D01*
X0047035Y0088750D01*
X0047011Y0088811D01*
X0046983Y0088870D01*
X0046952Y0088928D01*
X0046918Y0088983D01*
X0046880Y0089037D01*
X0046840Y0089088D01*
X0046796Y0089137D01*
X0046750Y0089183D01*
X0046701Y0089227D01*
X0046650Y0089267D01*
X0046596Y0089305D01*
X0046541Y0089339D01*
X0046483Y0089370D01*
X0046424Y0089398D01*
X0046363Y0089422D01*
X0046301Y0089443D01*
X0046237Y0089460D01*
X0046173Y0089473D01*
X0046109Y0089482D01*
X0046043Y0089488D01*
X0045978Y0089490D01*
X0024404Y0089490D02*
X0023154Y0089490D01*
X0023154Y0084990D01*
X0023154Y0086990D02*
X0024404Y0086990D01*
X0024473Y0086992D01*
X0024542Y0086998D01*
X0024610Y0087007D01*
X0024677Y0087020D01*
X0024744Y0087037D01*
X0024810Y0087058D01*
X0024874Y0087082D01*
X0024937Y0087110D01*
X0024999Y0087141D01*
X0025059Y0087175D01*
X0025116Y0087213D01*
X0025172Y0087254D01*
X0025225Y0087297D01*
X0025276Y0087344D01*
X0025324Y0087393D01*
X0025369Y0087445D01*
X0025411Y0087500D01*
X0025450Y0087556D01*
X0025487Y0087615D01*
X0025519Y0087676D01*
X0025549Y0087738D01*
X0025575Y0087802D01*
X0025597Y0087867D01*
X0025616Y0087933D01*
X0025631Y0088000D01*
X0025642Y0088068D01*
X0025650Y0088137D01*
X0025654Y0088206D01*
X0025654Y0088274D01*
X0025650Y0088343D01*
X0025642Y0088412D01*
X0025631Y0088480D01*
X0025616Y0088547D01*
X0025597Y0088613D01*
X0025575Y0088678D01*
X0025549Y0088742D01*
X0025519Y0088804D01*
X0025487Y0088865D01*
X0025450Y0088924D01*
X0025411Y0088980D01*
X0025369Y0089035D01*
X0025324Y0089087D01*
X0025276Y0089136D01*
X0025225Y0089183D01*
X0025172Y0089226D01*
X0025116Y0089267D01*
X0025059Y0089305D01*
X0024999Y0089339D01*
X0024937Y0089370D01*
X0024874Y0089398D01*
X0024810Y0089422D01*
X0024744Y0089443D01*
X0024677Y0089460D01*
X0024610Y0089473D01*
X0024542Y0089482D01*
X0024473Y0089488D01*
X0024404Y0089490D01*
M02*
