G75*
%MOIN*%
%OFA0B0*%
%FSLAX25Y25*%
%IPPOS*%
%LPD*%
%AMOC8*
5,1,8,0,0,1.08239X$1,22.5*
%
%ADD10C,0.02205*%
%ADD11C,0.01389*%
%ADD12OC8,0.07087*%
D10*
X0023612Y0101377D02*
X0023612Y0104685D01*
X0027706Y0104685D01*
X0027706Y0101377D01*
X0023612Y0101377D01*
X0023612Y0103472D02*
X0027706Y0103472D01*
X0023612Y0110039D02*
X0023612Y0113347D01*
X0027706Y0113347D01*
X0027706Y0110039D01*
X0023612Y0110039D01*
X0023612Y0112134D02*
X0027706Y0112134D01*
X0034242Y0110197D02*
X0034242Y0104527D01*
X0034242Y0110197D02*
X0037550Y0110197D01*
X0037550Y0104527D01*
X0034242Y0104527D01*
X0034242Y0106622D02*
X0037550Y0106622D01*
X0037550Y0108717D02*
X0034242Y0108717D01*
D11*
X0034346Y0094198D02*
X0036264Y0094198D01*
X0034346Y0094198D02*
X0034346Y0096904D01*
X0036264Y0096904D01*
X0036264Y0094198D01*
X0036264Y0095518D02*
X0034346Y0095518D01*
X0034346Y0096838D02*
X0036264Y0096838D01*
X0031146Y0094198D02*
X0029228Y0094198D01*
X0029228Y0096904D01*
X0031146Y0096904D01*
X0031146Y0094198D01*
X0031146Y0095518D02*
X0029228Y0095518D01*
X0029228Y0096838D02*
X0031146Y0096838D01*
D12*
X0026841Y0079803D03*
X0034715Y0079803D03*
X0030778Y0087677D03*
M02*
