M48
;GenerationSoftware,Autodesk,EAGLE,9.6.1*%
;CreationDate,2020-04-24T03:44:40Z*%
FMAT,2
ICI,OFF
METRIC,TZ,000.000
T5C0.400
T4C0.813
T3C1.000
T2C2.100
T1C7.000
%
G90
M71
T1
X37200Y5000
T2
X2500Y2500
X2500Y20500
X52500Y2500
X52500Y20500
T3
X42000Y7540
X42000Y5000
X42000Y2460
T4
X47000Y5500
X8250Y1000
X5750Y1000
X22250Y1000
X19750Y1000
X54000Y12000
X54000Y7000
X54000Y9500
X51500Y7000
X51500Y9500
X51500Y14500
X51500Y16500
X51500Y12000
X47000Y8000
X47000Y10500
X33200Y10900
X44500Y11800
X38000Y11800
T5
X17000Y6000
X21400Y18000
X17500Y2200
X31500Y2200
X34700Y20500
X54300Y17700
X44500Y8000
X31600Y4000
X7400Y18000
X31000Y1000
X13700Y2100
X17000Y16500
X31000Y16500
X27700Y2100
X43900Y4000
X45900Y3000
X49400Y1000
X31100Y7400
X33500Y2500
X16900Y11500
X34900Y17900
X30900Y11500
X46600Y19100
X47800Y18500
X49600Y16400
X54100Y13500
X5000Y4500
X19000Y4500
M30