%
M48
M72
T01C0.01575
T02C0.04724
T03C0.05118
T04C0.07874
%
T01
X6231Y5528
X35759Y43323
X28672Y44110
X34971Y54346
X30247Y67339
X34184Y70094
X42058Y69307
X45207Y77575
X51507Y82102
X57412Y86236
X60562Y90567
X64105Y94110
X52294Y95685
X44026Y96866
X47963Y104740
X43633Y109858
X57412Y107890
X77885Y103953
X81034Y100016
X86940Y100016
X94814Y100016
X116467Y96079
X116467Y115764
X61349Y82299
X90877Y72457
X94814Y68520
X102688Y64583
X96389Y28756
X96389Y22850
X116467Y5528
X18830Y76394
X18042Y83874
X18830Y88598
X21979Y98047
X25129Y101591
X5050Y90961
X6231Y115764
T02
X34184Y86236
T03
X8200Y60646
X8200Y48835
X14105Y38992
X8200Y29150
X20011Y29150
X114499Y29150
X114499Y60646
X114499Y72457
X114499Y84268
X92845Y113795
X81034Y113795
T04
X110562Y109858
X12137Y109858
X12137Y11433
X110562Y11433
M30
