%
M48
M72
T01C0.01575
T02C0.03543
T03C0.04724
T04C0.05118
T05C0.06496
T06C0.07874
%
T01
X5528Y5528
X29150Y38992
X42929Y31118
X61433Y27969
X74425Y46079
X79543Y46079
X84661Y46079
X85055Y29150
X88992Y12614
X115764Y5528
X60646Y5528
X57890Y52772
X61827Y59071
X43323Y66945
X35055Y74425
X40961Y82693
X39386Y87417
X44110Y87811
X52378Y92929
X61039Y86630
X64976Y83480
X77969Y84268
X83087Y84268
X88205Y84268
X115764Y115764
X48835Y115764
X41748Y95291
X13402Y78362
X13402Y66551
X5528Y115764
T02
X100016Y76394
X100016Y66551
X100016Y56709
X100016Y46866
X100016Y37024
T03
X52772Y76394
T04
X31118Y60646
X25213Y50803
X19307Y60646
X13402Y50803
X7496Y40961
X7496Y29150
X19307Y29150
X7496Y60646
X7496Y72457
X19307Y72457
T05
X82299Y96157
X82299Y111748
T06
X109858Y109858
X11433Y109858
X11433Y11433
X109858Y11433
M30
